<svg width="207" height="57" viewBox="0 0 207 57" fill="none" xmlns="http://www.w3.org/2000/svg">
<rect width="207" height="57" fill="#F5F5F5"/>
<g id="Group 122">
<g id="Desktop - 2" clip-path="url(#clip0_0_1)">
<rect width="1440" height="6534" transform="translate(-1093 -6314)" fill="#F7F2EE"/>
<g id="Group 121">
<rect id="Rectangle 69" x="-1093" y="-279" width="1440" height="499" fill="white"/>
<g id="Group 116">
<g id="Group 49">
<path id="Vector" d="M99.0417 18.2397C95.6171 18.2397 92.8306 21.2828 92.8306 25.0215V34.7074C92.8306 38.4457 95.6187 41.4874 99.0442 41.4874H107.919C111.344 41.4874 114.131 38.4443 114.131 34.7056V25.0188C114.131 21.281 111.343 18.2397 107.917 18.2397H99.0417ZM109.871 21.9594C110.341 21.9594 110.723 22.376 110.723 22.8893C110.723 23.4026 110.341 23.8192 109.871 23.8192C109.4 23.8192 109.019 23.4026 109.019 22.8893C109.019 22.376 109.4 21.9594 109.871 21.9594ZM103.481 23.8192C106.535 23.8192 109.019 26.5299 109.019 29.8636C109.019 33.1973 106.535 35.908 103.481 35.908C100.426 35.908 97.9426 33.1968 97.9426 29.8636C97.9426 26.5303 100.426 23.8192 103.481 23.8192ZM103.481 25.679C101.363 25.679 99.6466 27.5523 99.6466 29.8636C99.6466 32.1749 101.363 34.0482 103.481 34.0482C105.598 34.0482 107.315 32.1749 107.315 29.8636C107.315 27.5523 105.598 25.679 103.481 25.679Z" fill="#F33333"/>
<path id="Vector_2" d="M26.9245 15.9604C20.1384 15.9604 14.636 21.997 14.636 29.4418C14.636 36.2006 19.1747 41.7819 25.0874 42.7567V33.0143H22.0469V29.4708H25.0874V27.1126C25.0874 23.2087 26.821 21.4956 29.7788 21.4956C31.1948 21.4956 31.9449 21.6112 32.2989 21.6631V24.756H30.2817C29.0264 24.756 28.5877 26.0626 28.5877 27.5342V29.4708H32.2672L31.7686 33.0143H28.5877V42.7847C34.5855 41.8928 39.2131 36.267 39.2131 29.4418C39.2131 21.997 33.7111 15.9604 26.9245 15.9604Z" fill="#00B2FF"/>
<path id="Vector_3" d="M194.454 18.9259C193.455 19.4329 192.381 19.771 191.248 19.9307C192.4 19.1472 193.286 17.8976 193.702 16.4212C192.624 17.1452 191.43 17.6768 190.159 17.957C189.144 16.7248 187.697 15.9604 186.093 15.9604C183.013 15.9604 180.516 18.7956 180.516 22.291C180.516 22.7855 180.567 23.2675 180.662 23.7352C176.028 23.4686 171.918 20.9454 169.168 17.1158C168.685 18.0514 168.413 19.1472 168.413 20.3037C168.413 22.5014 169.396 24.4359 170.893 25.5759C169.979 25.5437 169.119 25.2526 168.365 24.7853C168.365 24.8044 168.365 24.8328 168.365 24.8595C168.365 27.9307 170.288 30.4878 172.837 31.0701C172.371 31.2162 171.879 31.2974 171.371 31.2974C171.011 31.2974 170.66 31.2505 170.32 31.1807C171.03 33.6904 173.089 35.525 175.529 35.579C173.62 37.2741 171.216 38.2893 168.602 38.2893C168.15 38.2893 167.709 38.2598 167.273 38.1993C169.742 39.9904 172.674 41.0404 175.822 41.0404C186.079 41.0404 191.69 31.3923 191.69 23.0226C191.69 22.7484 191.682 22.4753 191.67 22.2054C192.766 21.3199 193.709 20.2022 194.454 18.9259Z" fill="#00B2FF"/>
<rect id="Rectangle 62" x="0.5" y="0.5" width="51.2727" height="56" rx="3.5" stroke="#6D6D6D"/>
<rect id="Rectangle 63" x="77.8633" y="0.5" width="51.2727" height="56" rx="3.5" stroke="#6D6D6D"/>
<rect id="Rectangle 64" x="155.227" y="0.5" width="51.2727" height="56" rx="3.5" stroke="#6D6D6D"/>
</g>
</g>
</g>
</g>
</g>
<defs>
<clipPath id="clip0_0_1">
<rect width="1440" height="6534" fill="white" transform="translate(-1093 -6314)"/>
</clipPath>
</defs>
</svg>
