<svg width="105" height="12" viewBox="0 0 105 12" fill="none" xmlns="http://www.w3.org/2000/svg">
<path d="M3.06738 1.00586C3.8877 1.00586 4.56445 1.1084 5.09766 1.31348C5.63542 1.514 6.03646 1.82161 6.30078 2.23633C6.5651 2.65104 6.69727 3.17969 6.69727 3.82227C6.69727 4.35091 6.60156 4.79297 6.41016 5.14844C6.21875 5.49935 5.9681 5.78418 5.6582 6.00293C5.34831 6.22168 5.0179 6.3903 4.66699 6.50879L7.4082 11H6.05469L3.60742 6.83008H1.5293V11H0.367188V1.00586H3.06738ZM2.99902 2.01074H1.5293V5.8457H3.11523C3.93099 5.8457 4.53027 5.67936 4.91309 5.34668C5.30046 5.014 5.49414 4.52409 5.49414 3.87695C5.49414 3.19792 5.28906 2.71712 4.87891 2.43457C4.47331 2.15202 3.84668 2.01074 2.99902 2.01074ZM15.1323 11H9.56781V1.00586H15.1323V2.03125H10.7299V5.26465H14.8793V6.27637H10.7299V9.97461H15.1323V11ZM24.1757 11L22.9452 7.82812H18.9393L17.7157 11H16.5399L20.4501 0.964844H21.496L25.3788 11H24.1757ZM22.5966 6.7959L21.4276 3.64453C21.4003 3.5625 21.3547 3.42806 21.2909 3.24121C21.2317 3.05436 21.1701 2.86068 21.1063 2.66016C21.0425 2.45964 20.9901 2.29785 20.9491 2.1748C20.9035 2.36165 20.8534 2.5485 20.7987 2.73535C20.7486 2.91764 20.6985 3.08854 20.6483 3.24805C20.5982 3.40299 20.5549 3.53516 20.5184 3.64453L19.329 6.7959H22.5966ZM35.263 5.90723C35.263 7.03288 35.0579 7.97396 34.6478 8.73047C34.2376 9.48242 33.6429 10.0498 32.8636 10.4326C32.0889 10.8109 31.1478 11 30.0404 11H27.3265V1.00586H30.3411C31.3574 1.00586 32.2324 1.19271 32.9661 1.56641C33.6999 1.93555 34.265 2.4847 34.6614 3.21387C35.0625 3.93848 35.263 4.83626 35.263 5.90723ZM34.0394 5.94824C34.0394 5.05046 33.889 4.3099 33.5882 3.72656C33.292 3.14323 32.8545 2.71029 32.2757 2.42773C31.7015 2.14062 30.9974 1.99707 30.1634 1.99707H28.4886V10.002H29.9036C31.2799 10.002 32.3122 9.66243 33.0003 8.9834C33.693 8.30436 34.0394 7.29264 34.0394 5.94824ZM46.6369 11L43.2805 2.1543H43.2258C43.244 2.34115 43.26 2.56901 43.2736 2.83789C43.2873 3.10677 43.2987 3.40072 43.3078 3.71973C43.3169 4.03418 43.3215 4.35547 43.3215 4.68359V11H42.2414V1.00586H43.9641L47.1291 9.31836H47.177L50.3898 1.00586H52.0988V11H50.9504V4.60156C50.9504 4.30534 50.9549 4.00911 50.9641 3.71289C50.9732 3.41211 50.9846 3.12956 50.9982 2.86523C51.0119 2.59635 51.0256 2.36393 51.0393 2.16797H50.9846L47.5871 11H46.6369ZM64.0612 5.98926C64.0612 6.75944 63.9632 7.46126 63.7672 8.09473C63.5713 8.72363 63.2796 9.26595 62.8922 9.72168C62.5094 10.1729 62.0332 10.5215 61.4635 10.7676C60.8939 11.0137 60.233 11.1367 59.4811 11.1367C58.7064 11.1367 58.0296 11.0137 57.4508 10.7676C56.8766 10.5215 56.3981 10.1706 56.0153 9.71484C55.637 9.25911 55.3522 8.71452 55.1608 8.08105C54.9739 7.44759 54.8805 6.74577 54.8805 5.97559C54.8805 4.95475 55.0491 4.05924 55.3864 3.28906C55.7236 2.51888 56.234 1.9196 56.9176 1.49121C57.6058 1.06283 58.4671 0.848633 59.5016 0.848633C60.4905 0.848633 61.3222 1.06055 61.9967 1.48438C62.6758 1.9082 63.1885 2.50521 63.5348 3.27539C63.8857 4.04102 64.0612 4.94564 64.0612 5.98926ZM56.1041 5.98926C56.1041 6.83691 56.2249 7.57064 56.4664 8.19043C56.708 8.81022 57.0771 9.28874 57.5739 9.62598C58.0752 9.96322 58.7109 10.1318 59.4811 10.1318C60.2558 10.1318 60.8893 9.96322 61.3815 9.62598C61.8782 9.28874 62.2451 8.81022 62.4821 8.19043C62.7191 7.57064 62.8375 6.83691 62.8375 5.98926C62.8375 4.69954 62.5664 3.69238 62.0241 2.96777C61.4863 2.23861 60.6455 1.87402 59.5016 1.87402C58.7269 1.87402 58.0888 2.04036 57.5875 2.37305C57.0862 2.70573 56.7125 3.17969 56.4664 3.79492C56.2249 4.4056 56.1041 5.13704 56.1041 5.98926ZM69.5499 1.00586C70.3702 1.00586 71.047 1.1084 71.5802 1.31348C72.1179 1.514 72.519 1.82161 72.7833 2.23633C73.0476 2.65104 73.1798 3.17969 73.1798 3.82227C73.1798 4.35091 73.0841 4.79297 72.8927 5.14844C72.7012 5.49935 72.4506 5.78418 72.1407 6.00293C71.8308 6.22168 71.5004 6.3903 71.1495 6.50879L73.8907 11H72.5372L70.0899 6.83008H68.0118V11H66.8497V1.00586H69.5499ZM69.4815 2.01074H68.0118V5.8457H69.5977C70.4135 5.8457 71.0128 5.67936 71.3956 5.34668C71.783 5.014 71.9766 4.52409 71.9766 3.87695C71.9766 3.19792 71.7716 2.71712 71.3614 2.43457C70.9558 2.15202 70.3292 2.01074 69.4815 2.01074ZM81.6148 11H76.0503V1.00586H81.6148V2.03125H77.2124V5.26465H81.3618V6.27637H77.2124V9.97461H81.6148V11Z" fill="#EAB665"/>
<path d="M104.966 5.34586C104.945 5.29502 104.915 5.24895 104.876 5.21023L100.829 1.09894C100.669 0.959081 100.429 0.968628 100.28 1.12041C100.13 1.2722 100.121 1.51539 100.259 1.67856L103.618 5.09093L88.4047 5.09093C88.1812 5.09093 88 5.27502 88 5.50206C88 5.72909 88.1812 5.91318 88.4047 5.91318L103.618 5.91319L100.263 9.32151C100.125 9.4845 100.134 9.72768 100.284 9.87966C100.433 10.0314 100.673 10.0408 100.833 9.90113L104.88 5.78985C104.997 5.67257 105.032 5.49564 104.97 5.34164L104.966 5.34586Z" fill="#EAB665"/>
</svg>
